<?xml version="1.0" standalone="no"?>
<!DOCTYPE svg PUBLIC "-//W3C//DTD SVG 20010904//EN"
 "http://www.w3.org/TR/2001/REC-SVG-20010904/DTD/svg10.dtd">
<svg version="1.0" xmlns="http://www.w3.org/2000/svg"
 width="1000.000000pt" height="850.000000pt" viewBox="0 0 1000.000000 850.000000"
 preserveAspectRatio="xMidYMid meet">

<g transform="translate(0.000000,850.000000) scale(0.100000,-0.100000)"
fill="#000000" stroke="none">
<path d="M4190 4805 l0 -805 135 0 135 0 0 273 c0 149 -7 427 -15 617 -13 312
-13 363 -1 349 1 -2 109 -281 238 -619 l236 -615 88 -3 89 -3 240 625 c132
344 242 622 246 618 3 -4 0 -140 -7 -302 -7 -162 -13 -440 -13 -617 l-1 -323
130 0 130 0 0 805 0 805 -171 -2 -172 -3 -229 -610 c-126 -335 -233 -613 -237
-618 -4 -4 -112 272 -241 613 l-233 620 -173 0 -174 0 0 -805z"/>
<path d="M3671 4879 c-55 -22 -68 -83 -26 -124 40 -41 106 -26 124 27 22 63
-36 121 -98 97z"/>
<path d="M6270 4877 c-76 -39 -46 -147 41 -147 30 0 69 44 69 78 0 27 -31 72
-50 72 -4 0 -14 2 -22 5 -7 3 -24 -1 -38 -8z"/>
<path d="M110 3511 c-6 -12 -10 -127 -10 -303 0 -298 4 -330 44 -315 14 6 16
32 16 232 0 124 3 225 8 225 4 0 59 -102 122 -228 75 -147 121 -228 132 -230
13 -3 44 50 137 235 l120 238 0 -226 c1 -237 5 -258 45 -243 14 5 16 39 16
314 0 272 -2 309 -16 314 -9 3 -20 3 -25 0 -5 -3 -68 -122 -139 -265 -72 -142
-133 -259 -138 -259 -4 0 -67 119 -140 265 -83 166 -137 265 -147 265 -8 0
-19 -9 -25 -19z"/>
<path d="M1141 3512 c-8 -15 9 -47 90 -168 l99 -149 0 -148 c0 -123 3 -149 15
-153 8 -4 22 -1 30 6 12 10 15 41 15 159 l0 146 96 144 c73 109 94 148 87 160
-24 38 -34 30 -132 -118 -46 -68 -86 -119 -91 -115 -4 5 -44 64 -89 132 -45
67 -88 122 -96 122 -8 0 -19 -8 -24 -18z"/>
<path d="M1982 3518 c-9 -9 -12 -91 -12 -309 0 -250 2 -298 15 -309 8 -7 22
-10 30 -6 12 4 15 28 15 131 l0 125 74 0 75 0 79 -127 c56 -91 85 -128 98
-128 37 0 25 41 -45 155 l-70 113 32 21 c89 60 104 200 29 280 -47 50 -95 66
-207 66 -66 0 -105 -4 -113 -12z m274 -90 c29 -33 34 -45 34 -88 0 -43 -5 -55
-34 -88 l-34 -37 -96 -3 -96 -4 0 132 0 132 96 -4 96 -3 34 -37z"/>
<path d="M2785 3518 c-3 -7 -4 -150 -3 -318 l3 -305 215 0 215 0 0 25 0 25
-187 3 -188 2 0 115 0 114 138 3 137 3 0 25 0 25 -137 3 -138 3 0 114 0 115
188 2 187 3 0 25 0 25 -213 3 c-165 2 -214 0 -217 -10z"/>
<path d="M3745 3516 c-16 -7 -43 -28 -60 -45 -27 -30 -30 -38 -30 -102 0 -68
1 -72 36 -104 22 -19 59 -40 93 -49 79 -23 117 -59 123 -118 7 -63 -21 -110
-82 -133 -53 -21 -97 -10 -140 35 -34 35 -50 38 -65 9 -10 -17 -6 -26 27 -58
57 -58 132 -74 201 -46 105 44 150 161 101 262 -24 49 -75 84 -157 108 -58 18
-82 44 -82 93 0 46 16 71 54 87 42 18 73 10 113 -28 38 -35 66 -31 61 9 -7 64
-124 112 -193 80z"/>
<path d="M4370 3515 c-10 -12 -10 -18 0 -30 9 -11 35 -15 106 -15 l94 0 0
-279 c0 -234 2 -281 15 -291 8 -7 22 -10 30 -6 13 5 15 45 15 291 l0 285 89 0
c102 0 121 5 121 30 0 10 -7 21 -16 24 -9 3 -111 6 -229 6 -177 0 -215 -3
-225 -15z"/>
<path d="M5314 3522 c-6 -4 -63 -140 -126 -302 -88 -225 -113 -299 -106 -313
20 -38 42 -13 86 101 l44 112 117 0 118 0 38 -102 c20 -57 43 -109 50 -117 17
-17 45 -7 45 15 0 20 -218 583 -232 602 -12 14 -18 15 -34 4z m61 -222 c20
-52 39 -101 42 -107 4 -10 -17 -13 -87 -13 -83 0 -92 2 -86 18 36 102 82 210
87 204 4 -4 24 -50 44 -102z"/>
<path d="M5987 3523 c-4 -3 -7 -108 -7 -233 0 -222 0 -227 25 -277 65 -130
230 -162 337 -65 73 66 78 86 78 343 0 200 -2 228 -16 233 -40 15 -44 -6 -44
-239 0 -214 -1 -223 -23 -256 -35 -52 -82 -79 -137 -79 -55 0 -102 27 -137 79
-22 33 -23 42 -23 255 0 159 -3 225 -12 234 -13 13 -31 16 -41 5z"/>
<path d="M6821 3512 c-7 -14 -11 -119 -11 -304 0 -298 4 -330 44 -315 14 5 16
25 16 132 l0 126 77 -3 77 -3 77 -125 c43 -68 83 -126 89 -128 11 -4 40 16 40
27 0 4 -31 57 -70 119 -38 62 -70 115 -70 120 0 4 15 19 33 34 98 78 87 243
-20 310 -33 20 -53 23 -155 27 -109 3 -117 2 -127 -17z m270 -81 c35 -35 39
-44 39 -91 0 -47 -4 -56 -39 -91 l-39 -39 -91 0 -91 0 0 130 0 130 91 0 91 0
39 -39z"/>
<path d="M7853 3518 c-13 -18 -233 -584 -233 -602 0 -18 29 -29 45 -16 7 5 30
57 51 115 l39 105 119 -2 119 -3 41 -110 c42 -110 60 -132 85 -101 10 12 -10
72 -106 318 -117 298 -134 330 -160 296z m67 -219 c23 -60 40 -112 37 -115 -2
-3 -43 -4 -89 -2 l-85 3 36 95 c21 52 40 103 44 113 3 9 8 17 10 17 2 0 23
-50 47 -111z"/>
<path d="M8532 3518 c-9 -9 -12 -91 -12 -309 0 -250 2 -298 15 -309 8 -7 22
-10 30 -6 13 5 15 42 15 256 0 149 4 249 9 246 5 -4 93 -114 196 -245 102
-132 192 -244 199 -250 7 -6 21 -9 30 -5 14 5 16 39 16 314 0 275 -2 309 -16
314 -40 15 -44 -6 -46 -262 l-3 -245 -199 256 c-110 142 -205 257 -211 257 -6
0 -16 -5 -23 -12z"/>
<path d="M9430 3515 c-10 -12 -10 -18 0 -30 9 -11 35 -15 106 -15 l94 0 0
-279 c0 -292 3 -311 44 -295 14 5 16 37 16 290 l0 284 94 0 c71 0 97 4 106 15
10 12 10 18 0 30 -10 12 -49 15 -230 15 -181 0 -220 -3 -230 -15z"/>
</g>
</svg>
